<svg viewBox="0 0 512 512">
  <path d="M461.913 272.696h-30.038l-28.62-200.348h47.527a16.7 16.7 0 0 0 16.696-16.696 16.7 16.7 0 0 0-16.696-16.696H16.696C7.479 38.957 0 46.43 0 55.652a16.7 16.7 0 0 0 16.696 16.696h16.696v203.424C14 282.687 0 301.046 0 322.783v33.391c0 27.619 22.468 50.087 50.087 50.087h16.696c0 36.826 29.956 66.783 66.783 66.783s66.783-29.956 66.783-66.783h100.174c0 36.826 29.956 66.783 66.783 66.783s66.783-29.956 66.783-66.783h27.826c27.619 0 50.087-22.468 50.087-50.087v-33.391c-.002-27.619-22.47-50.087-50.089-50.087zM133.565 439.652c-18.413 0-33.391-14.978-33.391-33.391s14.978-33.391 33.391-33.391 33.391 14.978 33.391 33.391-14.978 33.391-33.391 33.391zm66.783-166.956h-66.783v-33.391h50.087a16.72 16.72 0 0 1 16.696 16.696v16.695zm33.391 0V256c0-27.619-22.468-50.087-50.087-50.087h-50.087v-83.478a16.7 16.7 0 0 0-16.696-16.696 16.7 16.7 0 0 0-16.696 16.696v150.261h-33.39V72.348h302.733l24.258 169.818-86.339-86.34 13.24-13.24c6.521-6.516 6.521-17.092 0-23.609s-17.087-6.521-23.609 0l-50.087 50.087c-6.521 6.516-6.521 17.092 0 23.609s17.086 6.522 23.609 0l13.239-13.239 93.261 93.261H233.739zm133.565 166.956c-18.413 0-33.391-14.978-33.391-33.391s14.978-33.391 33.391-33.391 33.391 14.978 33.391 33.391-14.978 33.391-33.391 33.391z"/>
</svg>